<svg xmlns="http://www.w3.org/2000/svg" width="800" height="800" viewBox="0 0 32 32">
  <defs>
    <clipPath id="a">
      <path d="M0 0h32v32H0z"/>
    </clipPath>
  </defs>
  <g clip-path="url(#a)" data-name="Group 2401">
    <g data-name="Group 2397">
      <g data-name="Group 2396">
        <g data-name="Group 2395">
          <path fill="#344952" d="m19.2 13.4.5-.5q.4-.4 0-.7t-.6 0l-.5.6a3.4 3.4 0 0 0-2.2-1 3 3 0 0 0-2.7 2.2 2.6 2.6 0 0 0 .1 1.4 8.4 8.4 0 0 0 .7 1.5L12.2 19a1.8 1.8 0 0 1-.2-.8 1.7 1.7 0 0 1 0-.6 8.7 8.7 0 0 1 .5-.9.7.7 0 0 0 0-.5 1 1 0 0 0-.2-.4.9.9 0 0 0-.7-.3.8.8 0 0 0-.6.2 2.4 2.4 0 0 0-.5.8 3 3 0 0 0-.2 1 3.3 3.3 0 0 0 .2 1.3 4.3 4.3 0 0 0 .7 1.2L10 21.4a.9.9 0 0 0-.2.4.4.4 0 0 0 .1.4.3.3 0 0 0 .4.1 1.6 1.6 0 0 0 .4-.4l1.3-1.2a3.9 3.9 0 0 0 1.5.9 3 3 0 0 0 1.6 0 3 3 0 0 0 1.3-.8 2.9 2.9 0 0 0 .6-1 2.6 2.6 0 0 0 .2-1.1 2.8 2.8 0 0 0-.3-1l-.6-1.3 2-2a1.6 1.6 0 0 1 0 1.6.9.9 0 0 0 0 1 .8.8 0 0 0 .7.3.8.8 0 0 0 .6-.2 1.7 1.7 0 0 0 .3-.6 3 3 0 0 0 .2-.8 2.5 2.5 0 0 0-.2-1.2 4.3 4.3 0 0 0-.6-1Zm-4.3 6.3a1.4 1.4 0 0 1-1 .5 1.9 1.9 0 0 1-1.1-.4l2.1-2.1a3 3 0 0 1 .4 1.1 1.2 1.2 0 0 1-.4 1Zm.8-4a2.8 2.8 0 0 1-.2-1.1 1.3 1.3 0 0 1 1.2-1.2 2.4 2.4 0 0 1 1 .3Z" data-name="Path 3856"/>
        </g>
      </g>
    </g>
    <g data-name="Group 2400">
      <g data-name="Group 2399">
        <g data-name="Group 2398">
          <path fill="#344952" d="M31.5 1a.5.5 0 0 0-.5-.4.5.5 0 0 0-.5.5s0 1.5-3.3 2a4.6 4.6 0 0 0-1.6.5L24 2a1 1 0 0 0-1-.3l-8 2.1a1 1 0 0 0-.7.3L.8 17.7a1 1 0 0 0 0 1.4l12 12a1 1 0 0 0 1.5 0l13.5-13.5a1 1 0 0 0 .3-.6l2.1-8a1 1 0 0 0-.2-1l-3.7-3.7a3.7 3.7 0 0 1 1-.3c4.3-.5 4.2-2.9 4.2-3Zm-5.3 15.4L13.6 29 2.9 18.4 15.5 5.8l7.5-2 1 1A7.6 7.6 0 0 0 23 7a2.1 2.1 0 1 0 1 .3 6.5 6.5 0 0 1 .9-1.7L28.2 9Zm-2.6-8a1 1 0 1 1-1.4 0 1 1 0 0 1 .4-.3 7.8 7.8 0 0 0-.2.9.5.5 0 0 0 .5.5.5.5 0 0 0 .5-.4 7.2 7.2 0 0 1 .1-.8h.1Z" data-name="Path 3857"/>
        </g>
      </g>
    </g>
  </g>
</svg>